<svg width="320" height="40" viewBox="0 0 320 40" fill="none" xmlns="http://www.w3.org/2000/svg">
<rect width="320" height="40" rx="5" fill="white"/>
<path d="M10.66 29C10.4733 29 10.3053 28.9347 10.156 28.804C10.0253 28.6547 9.96 28.4867 9.96 28.3V10.1C9.96 9.89467 10.0253 9.72667 10.156 9.596C10.3053 9.46533 10.4733 9.4 10.66 9.4H13.628C14.0947 9.4 14.412 9.57733 14.58 9.932L21.412 20.684V10.1C21.412 9.89467 21.4773 9.72667 21.608 9.596C21.7573 9.46533 21.9253 9.4 22.112 9.4H25.472C25.6773 9.4 25.8453 9.46533 25.976 9.596C26.1067 9.72667 26.172 9.89467 26.172 10.1V28.272C26.172 28.4773 26.1067 28.6547 25.976 28.804C25.8453 28.9347 25.6773 29 25.472 29H22.476C22.0653 29 21.7573 28.8227 21.552 28.468L14.72 18.108V28.3C14.72 28.4867 14.6547 28.6547 14.524 28.804C14.3933 28.9347 14.2253 29 14.02 29H10.66ZM28.965 29C28.8157 29 28.6757 28.944 28.545 28.832C28.433 28.7013 28.377 28.5613 28.377 28.412C28.377 28.3 28.3863 28.216 28.405 28.16L34.985 10.184C35.041 9.96 35.1623 9.77333 35.349 9.624C35.5357 9.47467 35.7783 9.4 36.077 9.4H40.221C40.5197 9.4 40.7623 9.47467 40.949 9.624C41.1357 9.77333 41.257 9.96 41.313 10.184L47.865 28.16L47.921 28.412C47.921 28.5613 47.8557 28.7013 47.725 28.832C47.613 28.944 47.473 29 47.305 29H43.861C43.413 29 43.1143 28.804 42.965 28.412L41.873 25.556H34.397L33.333 28.412C33.1837 28.804 32.8757 29 32.409 29H28.965ZM40.753 21.524L38.149 14.132L35.545 21.524H40.753ZM50.828 29C50.6413 29 50.4733 28.9347 50.324 28.804C50.1933 28.6547 50.128 28.4867 50.128 28.3V10.1C50.128 9.89467 50.1933 9.72667 50.324 9.596C50.4733 9.46533 50.6413 9.4 50.828 9.4H53.852C54.3 9.4 54.6266 9.60533 54.832 10.016L59.76 18.836L64.688 10.016C64.8933 9.60533 65.22 9.4 65.668 9.4H68.664C68.8693 9.4 69.0373 9.46533 69.168 9.596C69.3173 9.72667 69.392 9.89467 69.392 10.1V28.3C69.392 28.5053 69.3173 28.6733 69.168 28.804C69.0373 28.9347 68.8693 29 68.664 29H65.332C65.1266 29 64.9493 28.9347 64.8 28.804C64.6693 28.6733 64.604 28.5053 64.604 28.3V17.8L61.468 23.652C61.2253 24.0813 60.8986 24.296 60.488 24.296H59.032C58.7893 24.296 58.5933 24.24 58.444 24.128C58.2946 24.016 58.164 23.8573 58.052 23.652L54.888 17.8V28.3C54.888 28.4867 54.8226 28.6547 54.692 28.804C54.5613 28.9347 54.3933 29 54.188 29H50.828ZM72.1955 29C72.0461 29 71.9061 28.944 71.7755 28.832C71.6635 28.7013 71.6075 28.5613 71.6075 28.412C71.6075 28.3 71.6168 28.216 71.6355 28.16L78.2155 10.184C78.2715 9.96 78.3928 9.77333 78.5795 9.624C78.7661 9.47467 79.0088 9.4 79.3075 9.4H83.4515C83.7501 9.4 83.9928 9.47467 84.1795 9.624C84.3661 9.77333 84.4875 9.96 84.5435 10.184L91.0955 28.16L91.1515 28.412C91.1515 28.5613 91.0861 28.7013 90.9555 28.832C90.8435 28.944 90.7035 29 90.5355 29H87.0915C86.6435 29 86.3448 28.804 86.1955 28.412L85.1035 25.556H77.6275L76.5635 28.412C76.4141 28.804 76.1061 29 75.6395 29H72.1955ZM83.9835 21.524L81.3795 14.132L78.7755 21.524H83.9835ZM94.0584 29C93.8718 29 93.7038 28.9347 93.5544 28.804C93.4238 28.6547 93.3584 28.4867 93.3584 28.3V10.1C93.3584 9.89467 93.4238 9.72667 93.5544 9.596C93.7038 9.46533 93.8718 9.4 94.0584 9.4H97.0264C97.4931 9.4 97.8104 9.57733 97.9784 9.932L104.81 20.684V10.1C104.81 9.89467 104.876 9.72667 105.006 9.596C105.156 9.46533 105.324 9.4 105.51 9.4H108.87C109.076 9.4 109.244 9.46533 109.374 9.596C109.505 9.72667 109.57 9.89467 109.57 10.1V28.272C109.57 28.4773 109.505 28.6547 109.374 28.804C109.244 28.9347 109.076 29 108.87 29H105.874C105.464 29 105.156 28.8227 104.95 28.468L98.1184 18.108V28.3C98.1184 28.4867 98.0531 28.6547 97.9224 28.804C97.7918 28.9347 97.6238 29 97.4184 29H94.0584ZM121.575 29.28C118.887 29.28 116.787 28.6267 115.275 27.32C113.763 25.9947 112.961 24.1187 112.867 21.692C112.849 21.1507 112.839 20.292 112.839 19.116C112.839 17.94 112.849 17.0813 112.867 16.54C112.961 14.1693 113.773 12.34 115.303 11.052C116.853 9.764 118.943 9.12 121.575 9.12C123.349 9.12 124.889 9.40933 126.195 9.988C127.521 10.5667 128.529 11.304 129.219 12.2C129.929 13.096 130.302 14.02 130.339 14.972C130.339 15.14 130.274 15.28 130.143 15.392C130.031 15.504 129.891 15.56 129.723 15.56H125.635C125.449 15.56 125.299 15.532 125.187 15.476C125.075 15.42 124.982 15.3173 124.907 15.168C124.665 14.6267 124.282 14.16 123.759 13.768C123.237 13.3573 122.509 13.152 121.575 13.152C119.354 13.152 118.187 14.328 118.075 16.68C118.057 17.2027 118.047 18.0147 118.047 19.116C118.047 20.1987 118.057 21.0107 118.075 21.552C118.187 24.016 119.382 25.248 121.659 25.248C122.761 25.248 123.638 24.968 124.291 24.408C124.963 23.8293 125.299 22.952 125.299 21.776V21.244H122.667C122.462 21.244 122.294 21.1787 122.163 21.048C122.033 20.8987 121.967 20.7213 121.967 20.516V18.444C121.967 18.2387 122.033 18.0707 122.163 17.94C122.294 17.7907 122.462 17.716 122.667 17.716H129.723C129.929 17.716 130.097 17.7907 130.227 17.94C130.358 18.0707 130.423 18.2387 130.423 18.444V21.636C130.423 23.2227 130.059 24.5947 129.331 25.752C128.603 26.8907 127.567 27.768 126.223 28.384C124.898 28.9813 123.349 29.28 121.575 29.28ZM132.078 29C131.929 29 131.789 28.944 131.658 28.832C131.546 28.7013 131.49 28.5613 131.49 28.412C131.49 28.3 131.5 28.216 131.518 28.16L138.098 10.184C138.154 9.96 138.276 9.77333 138.462 9.624C138.649 9.47467 138.892 9.4 139.19 9.4H143.334C143.633 9.4 143.876 9.47467 144.062 9.624C144.249 9.77333 144.37 9.96 144.426 10.184L150.978 28.16L151.034 28.412C151.034 28.5613 150.969 28.7013 150.838 28.832C150.726 28.944 150.586 29 150.418 29H146.974C146.526 29 146.228 28.804 146.078 28.412L144.986 25.556H137.51L136.446 28.412C136.297 28.804 135.989 29 135.522 29H132.078ZM143.866 21.524L141.262 14.132L138.658 21.524H143.866ZM153.941 29C153.755 29 153.587 28.9347 153.437 28.804C153.307 28.6547 153.241 28.4867 153.241 28.3V10.1C153.241 9.89467 153.307 9.72667 153.437 9.596C153.587 9.46533 153.755 9.4 153.941 9.4H156.909C157.376 9.4 157.693 9.57733 157.861 9.932L164.693 20.684V10.1C164.693 9.89467 164.759 9.72667 164.889 9.596C165.039 9.46533 165.207 9.4 165.393 9.4H168.753C168.959 9.4 169.127 9.46533 169.257 9.596C169.388 9.72667 169.453 9.89467 169.453 10.1V28.272C169.453 28.4773 169.388 28.6547 169.257 28.804C169.127 28.9347 168.959 29 168.753 29H165.757C165.347 29 165.039 28.8227 164.833 28.468L158.001 18.108V28.3C158.001 28.4867 157.936 28.6547 157.805 28.804C157.675 28.9347 157.507 29 157.301 29H153.941ZM174.066 29C173.88 29 173.712 28.9347 173.562 28.804C173.432 28.6547 173.366 28.4867 173.366 28.3V10.1C173.366 9.89467 173.432 9.72667 173.562 9.596C173.712 9.46533 173.88 9.4 174.066 9.4H177.762C177.968 9.4 178.136 9.46533 178.266 9.596C178.397 9.72667 178.462 9.89467 178.462 10.1V24.772H186.946C187.152 24.772 187.32 24.8467 187.45 24.996C187.581 25.1267 187.646 25.2947 187.646 25.5V28.3C187.646 28.4867 187.581 28.6547 187.45 28.804C187.32 28.9347 187.152 29 186.946 29H174.066ZM190.773 29C190.587 29 190.419 28.9347 190.269 28.804C190.139 28.6547 190.073 28.4867 190.073 28.3V10.1C190.073 9.89467 190.139 9.72667 190.269 9.596C190.419 9.46533 190.587 9.4 190.773 9.4H194.525C194.731 9.4 194.899 9.46533 195.029 9.596C195.179 9.72667 195.253 9.89467 195.253 10.1V28.3C195.253 28.5053 195.179 28.6733 195.029 28.804C194.899 28.9347 194.731 29 194.525 29H190.773ZM199.851 29C199.665 29 199.497 28.9347 199.347 28.804C199.217 28.6547 199.151 28.4867 199.151 28.3V10.1C199.151 9.89467 199.217 9.72667 199.347 9.596C199.497 9.46533 199.665 9.4 199.851 9.4H203.379C203.585 9.4 203.753 9.46533 203.883 9.596C204.014 9.72667 204.079 9.89467 204.079 10.1V16.316L209.259 9.932C209.483 9.57733 209.847 9.4 210.351 9.4H214.383C214.551 9.4 214.691 9.46533 214.803 9.596C214.915 9.708 214.971 9.83867 214.971 9.988C214.971 10.1187 214.943 10.2307 214.887 10.324L208.167 18.78L215.391 28.076C215.466 28.1507 215.503 28.2627 215.503 28.412C215.503 28.5613 215.447 28.7013 215.335 28.832C215.223 28.944 215.083 29 214.915 29H210.743C210.295 29 209.922 28.8133 209.623 28.44L204.079 21.524V28.3C204.079 28.5053 204.014 28.6733 203.883 28.804C203.753 28.9347 203.585 29 203.379 29H199.851ZM218.418 29C218.231 29 218.063 28.9347 217.914 28.804C217.783 28.6547 217.718 28.4867 217.718 28.3V10.1C217.718 9.89467 217.783 9.72667 217.914 9.596C218.063 9.46533 218.231 9.4 218.418 9.4H222.114C222.319 9.4 222.487 9.46533 222.618 9.596C222.748 9.72667 222.814 9.89467 222.814 10.1V24.772H231.298C231.503 24.772 231.671 24.8467 231.802 24.996C231.932 25.1267 231.998 25.2947 231.998 25.5V28.3C231.998 28.4867 231.932 28.6547 231.802 28.804C231.671 28.9347 231.503 29 231.298 29H218.418ZM233.305 29C233.156 29 233.016 28.944 232.885 28.832C232.773 28.7013 232.717 28.5613 232.717 28.412C232.717 28.3 232.726 28.216 232.745 28.16L239.325 10.184C239.381 9.96 239.502 9.77333 239.689 9.624C239.876 9.47467 240.118 9.4 240.417 9.4H244.561C244.86 9.4 245.102 9.47467 245.289 9.624C245.476 9.77333 245.597 9.96 245.653 10.184L252.205 28.16L252.261 28.412C252.261 28.5613 252.196 28.7013 252.065 28.832C251.953 28.944 251.813 29 251.645 29H248.201C247.753 29 247.454 28.804 247.305 28.412L246.213 25.556H238.737L237.673 28.412C237.524 28.804 237.216 29 236.749 29H233.305ZM245.093 21.524L242.489 14.132L239.885 21.524H245.093ZM255.168 29C254.981 29 254.813 28.9347 254.664 28.804C254.533 28.6547 254.468 28.4867 254.468 28.3V10.1C254.468 9.89467 254.533 9.72667 254.664 9.596C254.813 9.46533 254.981 9.4 255.168 9.4H262.784C265.229 9.4 267.133 9.96 268.496 11.08C269.877 12.1813 270.568 13.7493 270.568 15.784C270.568 17.0907 270.26 18.2013 269.644 19.116C269.028 20.0307 268.178 20.7307 267.096 21.216L270.932 28.104C270.988 28.216 271.016 28.3187 271.016 28.412C271.016 28.5613 270.95 28.7013 270.82 28.832C270.708 28.944 270.577 29 270.428 29H266.704C266.162 29 265.78 28.748 265.556 28.244L262.364 22.084H259.508V28.3C259.508 28.5053 259.433 28.6733 259.284 28.804C259.153 28.9347 258.985 29 258.78 29H255.168ZM262.728 18.108C263.586 18.108 264.24 17.9027 264.688 17.492C265.136 17.0627 265.36 16.4747 265.36 15.728C265.36 14.9813 265.136 14.3933 264.688 13.964C264.258 13.516 263.605 13.292 262.728 13.292H259.508V18.108H262.728ZM273.743 29C273.538 29 273.361 28.9347 273.211 28.804C273.081 28.6733 273.015 28.5053 273.015 28.3V26.312C273.015 25.752 273.249 25.2947 273.715 24.94L276.627 22.084C278.326 20.7773 279.614 19.76 280.491 19.032C281.369 18.304 282.031 17.6413 282.479 17.044C282.927 16.4467 283.151 15.8773 283.151 15.336C283.151 13.8613 282.423 13.124 280.967 13.124C280.202 13.124 279.614 13.3573 279.203 13.824C278.793 14.272 278.522 14.8413 278.391 15.532C278.279 15.9613 277.962 16.176 277.439 16.176H273.939C273.771 16.176 273.631 16.12 273.519 16.008C273.407 15.896 273.351 15.756 273.351 15.588C273.389 14.3933 273.715 13.3013 274.331 12.312C274.966 11.304 275.853 10.5107 276.991 9.932C278.149 9.33467 279.474 9.036 280.967 9.036C282.535 9.036 283.879 9.288 284.999 9.792C286.119 10.296 286.969 11.0053 287.547 11.92C288.126 12.8347 288.415 13.8987 288.415 15.112C288.415 16.4187 288.005 17.6133 287.183 18.696C286.381 19.76 285.149 20.9173 283.487 22.168L280.911 24.772H288.107C288.313 24.772 288.481 24.8373 288.611 24.968C288.761 25.0987 288.835 25.2667 288.835 25.472V28.3C288.835 28.5053 288.761 28.6733 288.611 28.804C288.481 28.9347 288.313 29 288.107 29H273.743ZM300.833 29C300.647 29 300.479 28.9347 300.329 28.804C300.199 28.6547 300.133 28.4867 300.133 28.3V25.136H291.425C291.22 25.136 291.052 25.0707 290.921 24.94C290.791 24.8093 290.725 24.6413 290.725 24.436V21.776C290.725 21.496 290.828 21.2067 291.033 20.908L299.181 9.876C299.443 9.55867 299.788 9.4 300.217 9.4H304.305C304.511 9.4 304.679 9.46533 304.809 9.596C304.94 9.72667 305.005 9.89467 305.005 10.1V20.964H307.469C307.693 20.964 307.871 21.0387 308.001 21.188C308.132 21.3187 308.197 21.4773 308.197 21.664V24.436C308.197 24.6413 308.132 24.8093 308.001 24.94C307.871 25.0707 307.703 25.136 307.497 25.136H305.005V28.3C305.005 28.4867 304.94 28.6547 304.809 28.804C304.679 28.9347 304.511 29 304.305 29H300.833ZM300.245 21.16V14.552L295.541 21.16H300.245Z" fill="#295091"/>
</svg>
