<svg width="146" height="40" viewBox="0 0 146 40" fill="none" xmlns="http://www.w3.org/2000/svg">
<rect width="146" height="40" rx="5" fill="url(#paint0_linear_11127_2)"/>
<path d="M38.632 26C38.5253 26 38.4347 25.9627 38.36 25.888C38.2853 25.8133 38.248 25.7227 38.248 25.616V15.2C38.248 15.0827 38.28 14.9867 38.344 14.912C38.4187 14.8373 38.5147 14.8 38.632 14.8H47.016C47.1333 14.8 47.2293 14.8373 47.304 14.912C47.3787 14.9867 47.416 15.0827 47.416 15.2V25.616C47.416 25.7333 47.3787 25.8293 47.304 25.904C47.2293 25.968 47.1333 26 47.016 26H45.576C45.4693 26 45.3787 25.9627 45.304 25.888C45.2293 25.8133 45.192 25.7227 45.192 25.616V16.8H40.472V25.616C40.472 25.7227 40.4347 25.8133 40.36 25.888C40.296 25.9627 40.2053 26 40.088 26H38.632ZM53.3923 26.16C52.1443 26.16 51.1789 25.84 50.4963 25.2C49.8136 24.5493 49.4456 23.664 49.3923 22.544L49.3763 21.84L49.3923 21.136C49.4456 20.0267 49.8189 19.1467 50.5123 18.496C51.2056 17.8453 52.1656 17.52 53.3923 17.52C54.6189 17.52 55.5789 17.8453 56.2723 18.496C56.9656 19.1467 57.3389 20.0267 57.3923 21.136C57.4029 21.264 57.4083 21.4987 57.4083 21.84C57.4083 22.1813 57.4029 22.416 57.3923 22.544C57.3389 23.664 56.9709 24.5493 56.2883 25.2C55.6056 25.84 54.6403 26.16 53.3923 26.16ZM53.3923 24.576C53.9576 24.576 54.3949 24.4 54.7043 24.048C55.0136 23.6853 55.1843 23.1573 55.2163 22.464C55.2269 22.3573 55.2323 22.1493 55.2323 21.84C55.2323 21.5307 55.2269 21.3227 55.2163 21.216C55.1843 20.5227 55.0136 20 54.7043 19.648C54.3949 19.2853 53.9576 19.104 53.3923 19.104C52.8269 19.104 52.3896 19.2853 52.0803 19.648C51.7709 20 51.6003 20.5227 51.5683 21.216L51.5523 21.84L51.5683 22.464C51.6003 23.1573 51.7709 23.6853 52.0803 24.048C52.3896 24.4 52.8269 24.576 53.3923 24.576ZM58.861 27.76C58.7543 27.76 58.6637 27.7227 58.589 27.648C58.5143 27.584 58.477 27.4933 58.477 27.376V24.688C58.477 24.5813 58.5143 24.4907 58.589 24.416C58.6637 24.3413 58.7543 24.304 58.861 24.304H58.989C59.405 24.304 59.709 23.9733 59.901 23.312C60.093 22.6507 60.189 21.6213 60.189 20.224V18.064C60.189 17.9467 60.2263 17.856 60.301 17.792C60.3757 17.7173 60.4663 17.68 60.573 17.68H66.269C66.3863 17.68 66.477 17.7173 66.541 17.792C66.6157 17.856 66.653 17.9467 66.653 18.064V24.288H67.373C67.4903 24.288 67.581 24.3253 67.645 24.4C67.7197 24.464 67.757 24.5547 67.757 24.672V27.376C67.757 27.4933 67.7197 27.584 67.645 27.648C67.581 27.7227 67.4903 27.76 67.373 27.76H66.061C65.9437 27.76 65.8477 27.7227 65.773 27.648C65.6983 27.5733 65.661 27.4827 65.661 27.376V26H60.573V27.376C60.573 27.4933 60.5357 27.584 60.461 27.648C60.397 27.7227 60.3063 27.76 60.189 27.76H58.861ZM64.573 24.288V19.376H62.205V20.448C62.205 22.2827 61.9543 23.568 61.453 24.304L64.573 24.288ZM69.6119 26C69.5052 26 69.4145 25.9627 69.3399 25.888C69.2652 25.8133 69.2279 25.7227 69.2279 25.616V18.064C69.2279 17.9573 69.2652 17.8667 69.3399 17.792C69.4145 17.7173 69.5052 17.68 69.6119 17.68H76.4599C76.5772 17.68 76.6679 17.7173 76.7319 17.792C76.8065 17.856 76.8439 17.9467 76.8439 18.064V25.616C76.8439 25.7227 76.8065 25.8133 76.7319 25.888C76.6679 25.9627 76.5772 26 76.4599 26H75.1319C75.0252 26 74.9345 25.9627 74.8599 25.888C74.7852 25.8133 74.7479 25.7227 74.7479 25.616V19.376H71.3239V25.616C71.3239 25.7227 71.2865 25.8133 71.2119 25.888C71.1479 25.9627 71.0572 26 70.9399 26H69.6119ZM86.5931 17.68C86.6891 17.68 86.7745 17.7173 86.8491 17.792C86.9238 17.856 86.9611 17.936 86.9611 18.032V25.616C86.9611 25.7227 86.9238 25.8133 86.8491 25.888C86.7745 25.9627 86.6838 26 86.5771 26H85.2491C85.1425 26 85.0518 25.9627 84.9771 25.888C84.9025 25.8133 84.8651 25.7227 84.8651 25.616V20.48L81.0251 25.744C80.9291 25.9147 80.7851 26 80.5931 26H79.3771C79.2811 26 79.1958 25.968 79.1211 25.904C79.0465 25.8293 79.0091 25.7387 79.0091 25.632V18.064C79.0091 17.9573 79.0465 17.8667 79.1211 17.792C79.1958 17.7173 79.2865 17.68 79.3931 17.68H80.7211C80.8385 17.68 80.9291 17.7173 80.9931 17.792C81.0678 17.856 81.1051 17.9467 81.1051 18.064V23.216L84.9451 17.936C85.0625 17.7653 85.2065 17.68 85.3771 17.68H86.5931ZM92.5779 26.16C91.4045 26.16 90.4659 25.8347 89.7619 25.184C89.0685 24.5333 88.7005 23.632 88.6579 22.48L88.6419 21.84L88.6579 21.2C88.7005 20.048 89.0685 19.1467 89.7619 18.496C90.4659 17.8453 91.4045 17.52 92.5779 17.52C93.4099 17.52 94.1139 17.6693 94.6899 17.968C95.2765 18.2667 95.7085 18.6347 95.9859 19.072C96.2739 19.4987 96.4285 19.904 96.4499 20.288C96.4605 20.3947 96.4232 20.4853 96.3379 20.56C96.2632 20.6347 96.1725 20.672 96.0659 20.672H94.6579C94.5512 20.672 94.4659 20.6507 94.4019 20.608C94.3485 20.5547 94.2952 20.4693 94.2419 20.352C94.0819 19.936 93.8685 19.6373 93.6019 19.456C93.3459 19.2747 93.0152 19.184 92.6099 19.184C92.0659 19.184 91.6392 19.36 91.3299 19.712C91.0205 20.0533 90.8552 20.576 90.8339 21.28L90.8179 21.872L90.8339 22.4C90.8765 23.7973 91.4685 24.496 92.6099 24.496C93.0259 24.496 93.3619 24.4053 93.6179 24.224C93.8739 24.0427 94.0819 23.744 94.2419 23.328C94.2952 23.2107 94.3485 23.1307 94.4019 23.088C94.4659 23.0347 94.5512 23.008 94.6579 23.008H96.0659C96.1725 23.008 96.2632 23.0453 96.3379 23.12C96.4232 23.1947 96.4605 23.2853 96.4499 23.392C96.4285 23.7653 96.2792 24.1653 96.0019 24.592C95.7245 25.0187 95.2979 25.3867 94.7219 25.696C94.1459 26.0053 93.4312 26.16 92.5779 26.16ZM100.535 26.16C99.9905 26.16 99.4892 26.0533 99.0305 25.84C98.5825 25.616 98.2252 25.3173 97.9585 24.944C97.7025 24.5707 97.5745 24.16 97.5745 23.712C97.5745 22.9867 97.8678 22.4 98.4545 21.952C99.0412 21.504 99.8465 21.2 100.871 21.04L103.063 20.72V20.384C103.063 19.9147 102.945 19.5627 102.711 19.328C102.476 19.0933 102.097 18.976 101.575 18.976C101.223 18.976 100.935 19.0453 100.711 19.184C100.497 19.312 100.327 19.44 100.199 19.568C100.071 19.7067 99.9852 19.7973 99.9425 19.84C99.8998 19.968 99.8198 20.032 99.7025 20.032H98.4705C98.3745 20.032 98.2892 20 98.2145 19.936C98.1505 19.872 98.1185 19.7867 98.1185 19.68C98.1292 19.4133 98.2572 19.1093 98.5025 18.768C98.7585 18.4267 99.1478 18.1333 99.6705 17.888C100.193 17.6427 100.833 17.52 101.591 17.52C102.849 17.52 103.767 17.8027 104.343 18.368C104.919 18.9333 105.207 19.6747 105.207 20.592V25.616C105.207 25.7227 105.169 25.8133 105.095 25.888C105.031 25.9627 104.94 26 104.823 26H103.527C103.42 26 103.329 25.9627 103.255 25.888C103.18 25.8133 103.143 25.7227 103.143 25.616V24.992C102.908 25.3333 102.572 25.616 102.135 25.84C101.708 26.0533 101.175 26.16 100.535 26.16ZM101.079 24.64C101.665 24.64 102.145 24.448 102.519 24.064C102.892 23.68 103.079 23.12 103.079 22.384V22.048L101.479 22.304C100.86 22.4 100.391 22.5547 100.071 22.768C99.7612 22.9813 99.6065 23.2427 99.6065 23.552C99.6065 23.8933 99.7505 24.16 100.039 24.352C100.327 24.544 100.673 24.64 101.079 24.64ZM109.803 26C109.696 26 109.606 25.9627 109.531 25.888C109.456 25.8133 109.419 25.7227 109.419 25.616V19.376H106.811C106.704 19.376 106.614 19.3387 106.539 19.264C106.464 19.1893 106.427 19.0933 106.427 18.976V18.064C106.427 17.9467 106.464 17.856 106.539 17.792C106.614 17.7173 106.704 17.68 106.811 17.68H114.075C114.192 17.68 114.288 17.7173 114.363 17.792C114.438 17.8667 114.475 17.9573 114.475 18.064V18.976C114.475 19.0827 114.438 19.1787 114.363 19.264C114.288 19.3387 114.192 19.376 114.075 19.376H111.483V25.616C111.483 25.7227 111.446 25.8133 111.371 25.888C111.307 25.9627 111.216 26 111.099 26H109.803ZM119.344 26.16C118.17 26.16 117.232 25.8347 116.528 25.184C115.834 24.5333 115.466 23.632 115.424 22.48L115.408 21.84L115.424 21.2C115.466 20.048 115.834 19.1467 116.528 18.496C117.232 17.8453 118.17 17.52 119.344 17.52C120.176 17.52 120.88 17.6693 121.456 17.968C122.042 18.2667 122.474 18.6347 122.752 19.072C123.04 19.4987 123.194 19.904 123.216 20.288C123.226 20.3947 123.189 20.4853 123.104 20.56C123.029 20.6347 122.938 20.672 122.832 20.672H121.424C121.317 20.672 121.232 20.6507 121.168 20.608C121.114 20.5547 121.061 20.4693 121.008 20.352C120.848 19.936 120.634 19.6373 120.368 19.456C120.112 19.2747 119.781 19.184 119.376 19.184C118.832 19.184 118.405 19.36 118.096 19.712C117.786 20.0533 117.621 20.576 117.6 21.28L117.584 21.872L117.6 22.4C117.642 23.7973 118.234 24.496 119.376 24.496C119.792 24.496 120.128 24.4053 120.384 24.224C120.64 24.0427 120.848 23.744 121.008 23.328C121.061 23.2107 121.114 23.1307 121.168 23.088C121.232 23.0347 121.317 23.008 121.424 23.008H122.832C122.938 23.008 123.029 23.0453 123.104 23.12C123.189 23.1947 123.226 23.2853 123.216 23.392C123.194 23.7653 123.045 24.1653 122.767 24.592C122.49 25.0187 122.064 25.3867 121.488 25.696C120.912 26.0053 120.197 26.16 119.344 26.16ZM131.524 17.68C131.641 17.68 131.732 17.7173 131.796 17.792C131.871 17.856 131.908 17.9467 131.908 18.064V25.616C131.908 25.7227 131.871 25.8133 131.796 25.888C131.732 25.9627 131.641 26 131.524 26H130.164C130.057 26 129.967 25.9627 129.892 25.888C129.817 25.8133 129.78 25.7227 129.78 25.616V23.168H128.356L126.772 25.76C126.676 25.92 126.543 26 126.372 26H125.044C124.948 26 124.868 25.968 124.804 25.904C124.74 25.84 124.708 25.7653 124.708 25.68C124.708 25.584 124.74 25.4987 124.804 25.424L126.484 22.784C125.983 22.5707 125.604 22.2613 125.348 21.856C125.092 21.44 124.964 20.9493 124.964 20.384C124.964 19.488 125.241 18.816 125.796 18.368C126.361 17.9093 127.183 17.68 128.26 17.68H131.524ZM129.812 19.2H128.308C127.807 19.2 127.439 19.2907 127.204 19.472C126.98 19.6533 126.868 19.9573 126.868 20.384C126.868 20.7787 126.98 21.088 127.204 21.312C127.428 21.536 127.764 21.648 128.212 21.648H129.812V19.2Z" fill="white"/>
<path d="M20 10.3125C14.6481 10.3125 10.3125 14.6487 10.3125 20C10.3125 25.3512 14.6487 29.6875 20 29.6875C25.3519 29.6875 29.6875 25.3512 29.6875 20C29.6875 14.6487 25.3512 10.3125 20 10.3125ZM24.7581 16.9494L23.1681 24.4419C23.0506 24.9731 22.7344 25.1019 22.2931 24.8519L19.8713 23.0669L18.7031 24.1919C18.5744 24.3206 18.465 24.43 18.215 24.43L18.3869 21.965L22.875 17.91C23.0706 17.7381 22.8319 17.6406 22.5737 17.8125L17.0269 21.3044L14.6363 20.5581C14.1169 20.3944 14.105 20.0387 14.7456 19.7887L24.0856 16.1869C24.5194 16.0306 24.8981 16.2925 24.7575 16.9488L24.7581 16.9494Z" fill="white"/>
<defs>
<linearGradient id="paint0_linear_11127_2" x1="22" y1="0" x2="125.5" y2="0" gradientUnits="userSpaceOnUse">
<stop stop-color="#1E96C8"/>
<stop offset="1" stop-color="#37AEE2"/>
</linearGradient>
</defs>
</svg>
